ModelForces
version=1
nRows=4
nColumns=155
inDegrees=no

This file contains the forces exerted on a model during a simulation.

A force is a generalized force, meaning that it can be either a force (N) or a torque (Nm).

Units are S.I. units (second, meters, Newtons, ...)
Angles are in degrees.

endheader
time	glut_med1_r	glut_med2_r	glut_med3_r	glut_min1_r	glut_min2_r	glut_min3_r	semimem_r	semiten_r	bifemlh_r	bifemsh_r	sar_r	add_long_r	add_brev_r	add_mag1_r	add_mag2_r	add_mag3_r	tfl_r	pect_r	grac_r	glut_max1_r	glut_max2_r	glut_max3_r	iliacus_r	psoas_r	quad_fem_r	gem_r	peri_r	rect_fem_r	vas_med_r	vas_int_r	vas_lat_r	med_gas_r	lat_gas_r	soleus_r	tib_post_r	flex_dig_r	flex_hal_r	tib_ant_r	per_brev_r	per_long_r	per_tert_r	ext_dig_r	ext_hal_r	glut_med1_l	glut_med2_l	glut_med3_l	glut_min1_l	glut_min2_l	glut_min3_l	semimem_l	semiten_l	bifemlh_l	bifemsh_l	sar_l	add_long_l	add_brev_l	add_mag1_l	add_mag2_l	add_mag3_l	tfl_l	pect_l	grac_l	glut_max1_l	glut_max2_l	glut_max3_l	iliacus_l	psoas_l	quad_fem_l	gem_l	peri_l	rect_fem_l	vas_med_l	vas_int_l	vas_lat_l	med_gas_l	lat_gas_l	soleus_l	tib_post_l	flex_dig_l	flex_hal_l	tib_ant_l	per_brev_l	per_long_l	per_tert_l	ext_dig_l	ext_hal_l	ercspn_r	ercspn_l	intobl_r	intobl_l	extobl_r	extobl_l	femur_lat_meniscii_r.femur_lat_r.force.X	femur_lat_meniscii_r.femur_lat_r.force.Y	femur_lat_meniscii_r.femur_lat_r.force.Z	femur_lat_meniscii_r.femur_lat_r.torque.X	femur_lat_meniscii_r.femur_lat_r.torque.Y	femur_lat_meniscii_r.femur_lat_r.torque.Z	femur_lat_meniscii_r.meniscus_lat_r.force.X	femur_lat_meniscii_r.meniscus_lat_r.force.Y	femur_lat_meniscii_r.meniscus_lat_r.force.Z	femur_lat_meniscii_r.meniscus_lat_r.torque.X	femur_lat_meniscii_r.meniscus_lat_r.torque.Y	femur_lat_meniscii_r.meniscus_lat_r.torque.Z	femur_med_meniscii_r.femur_med_r.force.X	femur_med_meniscii_r.femur_med_r.force.Y	femur_med_meniscii_r.femur_med_r.force.Z	femur_med_meniscii_r.femur_med_r.torque.X	femur_med_meniscii_r.femur_med_r.torque.Y	femur_med_meniscii_r.femur_med_r.torque.Z	femur_med_meniscii_r.meniscus_med_r.force.X	femur_med_meniscii_r.meniscus_med_r.force.Y	femur_med_meniscii_r.meniscus_med_r.force.Z	femur_med_meniscii_r.meniscus_med_r.torque.X	femur_med_meniscii_r.meniscus_med_r.torque.Y	femur_med_meniscii_r.meniscus_med_r.torque.Z	femur_med_tibia_r.tibia_upper_r.force.X	femur_med_tibia_r.tibia_upper_r.force.Y	femur_med_tibia_r.tibia_upper_r.force.Z	femur_med_tibia_r.tibia_upper_r.torque.X	femur_med_tibia_r.tibia_upper_r.torque.Y	femur_med_tibia_r.tibia_upper_r.torque.Z	femur_med_tibia_r.femur_med_r.force.X	femur_med_tibia_r.femur_med_r.force.Y	femur_med_tibia_r.femur_med_r.force.Z	femur_med_tibia_r.femur_med_r.torque.X	femur_med_tibia_r.femur_med_r.torque.Y	femur_med_tibia_r.femur_med_r.torque.Z	femur_lat_tibia_r.tibia_upper_r.force.X	femur_lat_tibia_r.tibia_upper_r.force.Y	femur_lat_tibia_r.tibia_upper_r.force.Z	femur_lat_tibia_r.tibia_upper_r.torque.X	femur_lat_tibia_r.tibia_upper_r.torque.Y	femur_lat_tibia_r.tibia_upper_r.torque.Z	femur_lat_tibia_r.femur_lat_r.force.X	femur_lat_tibia_r.femur_lat_r.force.Y	femur_lat_tibia_r.femur_lat_r.force.Z	femur_lat_tibia_r.femur_lat_r.torque.X	femur_lat_tibia_r.femur_lat_r.torque.Y	femur_lat_tibia_r.femur_lat_r.torque.Z	aACL_R	pACL_R	aPCL_R	pPCL_R	aMCL_R	mMCL_R	pMCL_R	aLCL_R	mLCL_R	pLCL_R	aPCL_L	pPCL_L	aMCL_L	aLCL_L
      0.10642907	      6.92662159	     11.46980145	     12.36833433	      5.23174259	      5.99378570	      6.64244222	    118.57457272	    171.27083130	    227.88475700	    364.81616256	    126.47124795	     11.45777855	      8.09733578	      0.00000000	      4.88158218	      8.61775547	      5.06013892	      0.00000000	    101.27071124	      7.41464088	     11.29463754	      8.52517502	     33.35538353	     25.15024002	      7.09528443	      4.61397243	      3.77902212	     39.07994249	      0.00000000	      0.00000000	      0.00000000	     20.45056151	      1.33421494	      0.00000000	      0.29534764	      2.59189208	      0.21000417	     30.50595571	      2.74407270	      4.36467729	      0.00000000	     17.41679530	      5.47578670	      6.92662159	     11.46980145	     12.36833433	      5.23174259	      5.99378570	      6.64244222	      0.00000000	      8.65256808	     14.92854465	     14.41778096	      2.98091508	     11.45777855	      8.09733578	      0.00000000	      4.88158218	      8.61775547	      6.92702862	      0.00000000	      3.09337769	      7.41464088	     11.29463754	      8.52517502	     33.35538353	     25.15024002	      7.09528443	      4.61397243	      3.77902212	     23.75357453	      0.00000000	      0.00000000	      0.00000000	     15.61131918	      8.18860933	     57.97671696	     57.93462147	      8.07450149	      7.48020079	     16.87602672	      9.54456895	     21.88014662	      3.88148177	     11.38586412	      3.85250423	     49.27743375	     49.27743375	     18.72936599	     18.72936599	     35.64336975	     35.64336975	     78.90020154	    330.19847410	     46.93476995	    -27.27682187	      2.07429027	     31.19626790	    -78.90020154	   -330.19847410	    -46.93476995	     10.09416641	     -2.70089423	      2.09714452	    -39.64019757	     83.02531191	     10.79597618	     -2.42950878	      0.95921550	    -16.22119225	     39.64019757	    -83.02531191	    -10.79597618	     -1.50666097	     -0.97098809	      1.85907060	    -91.75264908	   -476.25062469	     99.97658177	    -11.05482385	      2.19209151	      0.33082557	     91.75264908	    476.25062469	    -99.97658177	     50.35767952	     -1.45244033	     39.26245109	    -23.62833923	    -85.95440813	    -20.99447832	      2.92341800	     -0.81564335	      0.04923792	     23.62833923	     85.95440813	     20.99447832	    -10.75084890	      0.56207265	      9.79833768	      5.64705146	    -12.06592856	      0.00000000	     56.99206325	      0.00000000	      0.00000000	    -39.65029852	      0.00000000	      0.00000000	      0.00000000	      0.00000000	      0.00000000	      0.00000001	      0.00000000
      0.10722394	      7.79209789	     11.40845022	     12.30268940	      5.20463534	      5.96389151	      6.61433011	    118.12471302	    170.82492355	    226.18090686	    363.24229272	    126.50573871	     11.39553366	      8.05575610	      0.00000000	      4.86812966	      8.57027771	      5.06047357	      0.00000000	    101.23038421	      7.37518372	     11.23351762	      8.47845118	     33.23998250	     25.01886693	      7.07999284	      4.59509373	      3.94172989	     38.92628453	      0.00000000	      0.00000000	      0.00000000	     21.78085662	      1.26483586	      0.00000000	      0.00000000	      2.27123477	      0.03206100	     30.34783289	      2.95964944	      4.45839794	      5.71898094	     17.34886709	      5.45217416	      7.79209789	     11.40845022	     12.30268940	      5.20463534	      5.96389151	      6.61433011	      0.00000000	      8.60382510	     14.92360446	     14.34145936	      2.96553924	     11.39553366	      8.05575610	      0.00000000	      4.86812966	      8.57027771	      6.89914551	      0.00000000	      3.07715779	      7.37518372	     11.23351762	      8.47845118	     33.23998250	     25.01886693	      7.07999284	      4.59509373	      3.94172989	     23.63794971	      0.00000000	      0.00000000	      0.00000000	     15.91890187	      8.30223355	     58.03267681	     57.85058868	      7.98929373	      7.38927207	     16.85538541	      9.51184732	     21.84644600	      3.86147500	     11.48046174	      3.88477100	     49.02158395	     49.02158395	     18.62562971	     18.62562971	     35.54771569	     35.54771569	     77.38517742	    332.39658851	     46.29398776	    -27.06000618	      2.01704731	     30.51199064	    -77.38517742	   -332.39658851	    -46.29398776	     10.11560294	     -2.63694402	      2.26326327	    -38.59181009	     84.27241112	     11.82744367	     -2.82416165	      0.93130622	    -15.78335081	     38.59181009	    -84.27241112	    -11.82744367	     -1.50635416	     -0.95806383	      1.84394683	    -96.71448472	   -479.73888436	    101.36197804	    -11.17117755	      2.29985585	      0.24922522	     96.71448472	    479.73888436	   -101.36197804	     50.99459608	     -1.54278897	     41.33141384	    -22.59095034	    -79.77450817	    -19.55143868	      2.71214344	     -0.77739453	      0.03805828	     22.59095034	     79.77450817	     19.55143868	    -10.00498850	      0.53834972	      9.36390880	      5.15846053	    -12.36031938	     26.57916413	     58.03729263	      0.00000000	      0.00000000	    -40.27785045	      0.00000000	      0.00000000	      0.00000000	      0.00000000	      0.00000000	      0.00000001	      0.00000000
      0.10801882	      8.53103535	     11.34773116	     12.23760677	      5.17782185	      5.93432473	      6.58595483	    117.65607627	    170.41156080	    224.35426364	    361.31625412	    126.52977086	     11.33397133	      8.01462552	      0.00000000	      4.85372918	      8.52320569	      5.05766588	      1.96501762	    101.15164426	      7.33608651	     11.17305619	      8.43223736	     33.12587228	     24.88895410	      7.06160177	      4.57641076	      4.09487392	     38.78062336	      0.00000000	      0.00000000	      0.00000000	     23.20625440	      1.20056812	      0.00000000	      0.00000000	      1.95701460	      0.00000000	     30.17159226	      3.19507150	      4.57227928	      9.20188017	     17.29059314	      5.42900096	      8.53103535	     11.34773116	     12.23760677	      5.17782185	      5.93432473	      6.58595483	      0.00000000	      8.55561625	     14.91685596	     14.26597097	      2.95032974	     11.33397133	      8.01462552	      0.00000000	      4.85372918	      8.52320569	      6.87145689	      1.96501762	      3.06111435	      7.33608651	     11.17305619	      8.43223736	     33.12587228	     24.88895410	      7.06160177	      4.57641076	      4.09487392	     23.52253259	      0.00000000	      0.00000000	      0.00000000	     16.21306281	      8.41087571	     58.07691693	     57.76527525	      7.90577274	      7.30009638	     16.83251696	      9.47868610	     21.81173900	      3.84167638	     11.56873832	      3.91342176	     48.76850855	     48.76850855	     18.52302825	     18.52302825	     35.45314035	     35.45314035	     80.60493457	    336.26221924	     45.47025448	    -26.80520823	      2.07777651	     31.80587120	    -80.60493457	   -336.26221924	    -45.47025448	     10.17299257	     -2.70000043	      2.27946804	    -38.13342130	     85.01799714	     12.85502245	     -3.23115329	      0.91457631	    -15.60240814	     38.13342130	    -85.01799714	    -12.85502245	     -1.49330773	     -0.95514912	      1.85599549	   -104.23390951	   -486.83560080	    102.85649578	    -11.34572523	      2.44319914	      0.10288335	    104.23390951	    486.83560080	   -102.85649578	     51.74011019	     -1.67230343	     44.48121521	    -22.01616478	    -75.48599964	    -18.44071270	      2.55963502	     -0.75386248	      0.02901168	     22.01616478	     75.48599964	     18.44071270	     -9.44018317	      0.52522771	      9.12150268	      5.36750922	    -12.02172450	     25.66929527	     57.52803226	      0.00000000	      0.00000000	    -41.18939773	      0.00000000	      0.00000000	      0.00000000	      0.00000000	      0.00000000	      0.00000001	      0.00000000
      0.10844842	      8.88628831	     11.31517671	     12.20266935	      5.16345110	      5.91847978	      6.57052277	    117.41307299	    170.22251629	    223.36943459	    360.35937018	    126.56012816	     11.30098020	      7.99258088	      0.00000000	      4.84558603	      8.49793447	      5.05592459	      2.56150698	    101.11679408	      7.31510701	     11.14065069	      8.40747063	     33.06473126	     24.81934218	      7.05055195	      4.56639428	      4.17391063	     38.70707012	      0.00000000	      0.00000000	      0.00000000	     24.02739453	      1.17091204	      0.00000000	      0.00000000	      1.79118374	      0.00000000	     30.08806140	      3.32792555	      4.63965367	     10.18405183	     17.30343288	      5.41659586	      8.88628831	     11.31517671	     12.20266935	      5.16345110	      5.91847978	      6.57052277	      0.00000000	      8.52978109	     14.91246691	     14.22551535	      2.94217807	     11.30098020	      7.99258088	      0.00000000	      4.84558603	      8.49793447	      6.85657412	      2.56150698	      3.05251612	      7.31510701	     11.14065069	      8.40747063	     33.06473126	     24.81934218	      7.05055195	      4.56639428	      4.17391063	     23.46025566	      0.00000000	      0.00000000	      0.00000000	     16.36667027	      8.46758758	     58.09611919	     57.71864956	      7.86135656	      7.25266667	     16.81925575	      9.46059017	     21.79256873	      3.83106203	     11.61363681	      3.92733841	     48.63287303	     48.63287303	     18.46804331	     18.46804331	     35.40246984	     35.40246984	     80.50110003	    335.35035310	     45.33453377	    -26.72543473	      2.06591126	     31.74616218	    -80.50110003	   -335.35035310	    -45.33453377	     10.13705065	     -2.68831599	      2.31411560	    -36.66279133	     84.32149201	     13.30547301	     -3.43428262	      0.88151380	    -14.99352352	     36.66279133	    -84.32149201	    -13.30547301	     -1.46540887	     -0.93132070	      1.80822944	   -107.62524596	   -491.06242161	    103.28904875	    -11.42981846	      2.50902047	      0.06012928	    107.62524596	    491.06242161	   -103.28904875	     51.99039583	     -1.73233649	     45.89578267	    -21.44619768	    -73.22992737	    -17.91560600	      2.48170762	     -0.73540874	      0.03452071	     21.44619768	     73.22992737	     17.91560600	     -9.16789353	      0.51228894	      8.88129893	      5.55367047	    -11.75356246	     25.73191699	     58.36002164	      0.00000000	      0.00000000	    -41.08079839	      0.00000000	      0.00000000	      0.00000000	      0.00000000	      0.00000000	      0.00000001	      0.00000000
